<svg xmlns="http://www.w3.org/2000/svg" version="1.1" xmlns:xlink="http://www.w3.org/1999/xlink" width="1000" height="1000"><style>
    #light-icon {
      display: inline;
    }
    #dark-icon {
      display: none;
    }

    @media (prefers-color-scheme: dark) {
      #light-icon {
        display: none;
      }
      #dark-icon {
        display: inline;
      }
    }
  </style><g id="light-icon"><svg xmlns="http://www.w3.org/2000/svg" version="1.1" xmlns:xlink="http://www.w3.org/1999/xlink" width="1000" height="1000"><g><g transform="matrix(29.41176470588235,0,0,29.41176470588235,0,0)"><svg xmlns="http://www.w3.org/2000/svg" width="34" height="34" viewBox="0 0 64 64"><path d="M32 9 C24 23 16 41 11 55 L18 55 C27 41 30 25 32 13 Z" fill="#2B2117"></path><path d="M32 9 C40 23 48 41 53 55 L46 55 C37 41 34 25 32 13 Z" fill="#2B2117"></path><g transform="translate(23.33,29.33) scale(0.542)" fill="#B45A2B">
    <path d="M16 29 C16 29 4 20 4 11 C4 6 8 3 12 3 C14 3 16 5 16 6 C16 5 18 3 20 3 C24 3 28 6 28 11 C28 20 16 29 16 29 Z"></path>
  </g></svg></g></g></svg></g><g id="dark-icon"><svg xmlns="http://www.w3.org/2000/svg" version="1.1" xmlns:xlink="http://www.w3.org/1999/xlink" width="1000" height="1000"><g clip-path="url(#SvgjsClipPath1183)"><rect width="1000" height="1000" fill="#efe6d4"></rect><g transform="matrix(23.529411764705884,0,0,23.529411764705884,100,100)"><svg xmlns="http://www.w3.org/2000/svg" width="34" height="34" viewBox="0 0 64 64"><path d="M32 9 C24 23 16 41 11 55 L18 55 C27 41 30 25 32 13 Z" fill="#2B2117"></path><path d="M32 9 C40 23 48 41 53 55 L46 55 C37 41 34 25 32 13 Z" fill="#2B2117"></path><g transform="translate(23.33,29.33) scale(0.542)" fill="#B45A2B">
    <path d="M16 29 C16 29 4 20 4 11 C4 6 8 3 12 3 C14 3 16 5 16 6 C16 5 18 3 20 3 C24 3 28 6 28 11 C28 20 16 29 16 29 Z"></path>
  </g></svg></g></g><defs><clipPath id="SvgjsClipPath1183"><rect width="1000" height="1000" x="0" y="0" rx="350" ry="350"></rect></clipPath></defs></svg></g></svg>